<svg width="14" height="15" fill="none" xmlns="http://www.w3.org/2000/svg"><path d="M12.25 1.375h-2.188v.875h2.188v10.5h-2.188v.875h2.188a.878.878 0 00.875-.875V2.25a.878.878 0 00-.875-.875zM6.125 7.938H3.5a.413.413 0 00-.437.437V11a.414.414 0 00.437.438h2.625A.414.414 0 006.563 11V8.375a.413.413 0 00-.438-.438zm-.437 2.625h-1.75v-1.75h1.75v1.75z" fill="#B9B9B9"/><path d="M10.938 11V8.375a.414.414 0 00-.438-.437H7.875a.413.413 0 00-.437.437V11a.414.414 0 00.437.438H10.5a.438.438 0 00.438-.438zm-.876-.438h-1.75v-1.75h1.75v1.75zm-3.937-7H3.5A.413.413 0 003.063 4v2.625a.414.414 0 00.437.438h2.625a.413.413 0 00.438-.438V4a.413.413 0 00-.438-.437zm-.437 2.626h-1.75v-1.75h1.75v1.75zm2.187.875H10.5a.413.413 0 00.438-.438V4a.414.414 0 00-.438-.437H7.875A.413.413 0 007.438 4v2.625a.438.438 0 00.437.438zm.438-2.625h1.75v1.75h-1.75v-1.75z" fill="#B9B9B9"/><path d="M1.75 2.25h2.188v-.875H1.75a.878.878 0 00-.875.875v10.5a.878.878 0 00.875.875h2.188v-.875H1.75V2.25z" fill="#B9B9B9"/></svg>