<svg width="16" height="12" fill="none" xmlns="http://www.w3.org/2000/svg"><path d="M8 1.967c2.756 0 5.214 1.562 6.415 4.033-1.2 2.471-3.651 4.033-6.415 4.033-2.764 0-5.215-1.562-6.415-4.033C2.785 3.529 5.244 1.967 8 1.967zM8 .5C4.364.5 1.258 2.78 0 6c1.258 3.22 4.364 5.5 8 5.5s6.742-2.28 8-5.5C14.742 2.78 11.636.5 8 .5zm0 3.667c1.004 0 1.818.821 1.818 1.833A1.826 1.826 0 018 7.833 1.826 1.826 0 016.182 6c0-1.012.814-1.833 1.818-1.833zM8 2.7C6.196 2.7 4.727 4.181 4.727 6c0 1.819 1.47 3.3 3.273 3.3 1.804 0 3.273-1.481 3.273-3.3 0-1.819-1.47-3.3-3.273-3.3z" fill="#828282"/></svg>