<svg width="18" height="19" fill="none" xmlns="http://www.w3.org/2000/svg"><path d="M11.25 3.449h2.813a.562.562 0 01.562.562v11.813a.563.563 0 01-.563.562H3.938a.563.563 0 01-.563-.562V4.01a.562.562 0 01.563-.562H6.75" fill="#828282"/><path d="M11.25 3.449h2.813a.562.562 0 01.562.562v11.813a.563.563 0 01-.563.562H3.938a.563.563 0 01-.563-.562V4.01a.562.562 0 01.563-.562H6.75" stroke="#828282" stroke-linecap="round" stroke-linejoin="round"/><path d="M6.75 11.324h4.5m-4.5-2.25h4.5" stroke="#fff" stroke-linecap="round" stroke-linejoin="round"/><path d="M6.188 4.699v-.563a2.813 2.813 0 015.625 0V4.7H6.186z" stroke="#828282" stroke-linecap="round" stroke-linejoin="round"/></svg>