<svg width="23" height="25" fill="none" xmlns="http://www.w3.org/2000/svg"><g clip-path="url(#clip0_2926_2397)" stroke="#828282" stroke-width="2" stroke-linecap="round" stroke-linejoin="round"><path d="M8.625 21.5h5.75M5.05 10.25c-.002-.89.165-1.77.492-2.591A6.766 6.766 0 016.95 5.464a6.447 6.447 0 012.109-1.46 6.225 6.225 0 012.485-.504c3.558.028 6.406 3.112 6.406 6.834V11c0 3.356.674 5.306 1.267 6.375a.775.775 0 010 .749.735.735 0 01-.262.274.696.696 0 01-.358.102H4.402a.697.697 0 01-.358-.102.735.735 0 01-.262-.274.776.776 0 010-.749C4.375 16.306 5.05 14.356 5.05 11v-.75z"/></g><defs><clipPath id="clip0_2926_2397"><path fill="#fff" transform="translate(0 .5)" d="M0 0h23v24H0z"/></clipPath></defs></svg>